#!OML:ASF G:\ViconDB\ViconDB\414\test\team2\shane.ASF
:FULLY-SPECIFIED
:DEGREES
361
root 0.828106 16.4336 27.0331 -7.51986 12.9284 -6.81595
lowerback 7.76058 -3.41968 1.50887
upperback 3.6733 -4.38402 3.76721
thorax -0.355071 -2.20395 3.38643
lowerneck -9.3575 -4.8392 -9.30155
upperneck 31.4386 -4.24358 -2.12599
head 12.1173 -3.23961 0.245231
rclavicle -5.26779e-014 1.11319e-014
rhumerus -31.5472 17.4167 -54.9804
rradius 116.367
rwrist 3.51062
rhand -28.3446 -18.6173
rfingers 7.12502
rthumb -1.71876 -48.5901
lclavicle -8.02593e-015 4.37326e-015
lhumerus -50.3298 -34.8536 103.368
lradius 42.4613
lwrist -15.2426
lhand -36.8838 5.04362
lfingers 7.12502
lthumb -9.96258 34.7879
rfemur -20.845 -15.2315 18.7348
rtibia 36.0145
rfoot -15.4129 1.1044
rtoes -12.508
lfemur 34.2305 -5.73891 -5.12369
ltibia -1.43125e-013
lfoot -18.375 -8.76379
ltoes -27.3081
362
root 0.791187 16.4476 27.2427 -7.60172 12.591 -7.12774
lowerback 8.31011 -3.39537 2.007
upperback 3.30266 -4.27244 3.86512
thorax -1.07526 -2.13967 3.25482
lowerneck -9.42108 -4.60841 -8.86303
upperneck 32.2629 -3.94222 -2.25084
head 12.4351 -3.0923 0.149583
rclavicle -7.43703e-014 4.81059e-014
rhumerus -32.5533 20.4805 -56.7144
rradius 114.548
rwrist 2.55618
rhand -27.2679 -17.7616
rfingers 7.12502
rthumb -0.678877 -47.7403
lclavicle -7.43703e-014 4.81059e-014
lhumerus -48.9054 -31.7536 101.883
lradius 40.0181
lwrist -17.1793
lhand -37.3118 5.36607
lfingers 7.12502
lthumb -10.3755 35.0901
rfemur -20.35 -14.1224 19.2198
rtibia 36.6484
rfoot -15.4818 0.317901
rtoes -11.0831
lfemur 34.7863 -5.63525 -4.4422
ltibia -4.77083e-014
lfoot -16.1296 -9.4283
ltoes -29.3636
363
root 0.76187 16.4713 27.4606 -7.79135 12.1241 -7.14161
lowerback 7.66882 -3.18276 2.3068
upperback 3.71158 -4.01758 3.85615
thorax -0.329948 -2.01052 2.9989
lowerneck -9.92528 -4.61118 -8.64849
upperneck 33.0742 -3.97151 -2.08022
head 12.8757 -3.07741 0.147006
rclavicle 5.11871e-015 -5.48646e-014
rhumerus -32.5533 20.4805 -56.7144
rradius 114.548
rwrist 2.55618
rhand -27.2679 -17.7616
rfingers 7.12502
rthumb -0.678877 -47.7403
lclavicle -7.43703e-014 4.81059e-014
lhumerus -48.9054 -31.7536 101.883
lradius 40.0181
lwrist -17.1793
lhand -37.3118 5.36607
lfingers 7.12502
lthumb -10.3755 35.0901
rfemur -19.6751 -13.7354 19.4651
rtibia 37.0511
rfoot -15.4126 0.338553
rtoes -11.3135
lfemur 35.5248 -5.40425 -4.0889
ltibia -7.95139e-014
lfoot -13.187 -10.2822
ltoes -31.2295
364
root 0.730284 16.4972 27.6654 -8.03771 11.9432 -6.9621
lowerback 7.74487 -3.09212 2.37723
upperback 3.82328 -3.89417 3.73435
thorax -0.274094 -1.94647 2.82481
lowerneck -10.1645 -4.51768 -8.11365
upperneck 34.1074 -3.91396 -2.08236
head 13.3457 -3.00929 0.0385167
rclavicle -3.03892e-014 9.93923e-015
rhumerus -33.7248 24.9794 -60.2742
rradius 110.476
rwrist -0.985969
rhand -23.0804 -16.403
rfingers 7.12502
rthumb 3.36549 -46.3562
lclavicle -3.03892e-014 9.93923e-015
lhumerus -47.215 -30.0316 100.861
lradius 37.8928
lwrist -17.5916
lhand -38.1233 6.02977
lfingers 7.12502
lthumb -11.1582 35.7131
rfemur -18.7987 -13.7497 19.4076
rtibia 37.3195
rfoot -14.9586 0.797596
rtoes -9.71591
lfemur 36.1324 -5.39291 -4.06954
ltibia -4.13472e-014
lfoot -9.65046 -10.9703
ltoes -32.8501
365
root 0.700976 16.5302 27.8742 -8.42797 11.7162 -6.70461
lowerback 7.99987 -2.97362 2.28192
upperback 3.92023 -3.73452 3.71426
thorax -0.314642 -1.86768 2.85656
lowerneck -10.3166 -4.47183 -7.97781
upperneck 35.2674 -3.88299 -1.95799
head 13.8899 -2.9857 0.0421001
rclavicle 1.51573e-015 2.78299e-014
rhumerus -34.4662 27.0371 -62.049
rradius 107.823
rwrist -2.77667
rhand -20.8093 -14.7545
rfingers 7.12502
rthumb 5.5585 -44.6616
lclavicle -3.03892e-014 9.93923e-015
lhumerus -47.215 -30.0316 100.861
lradius 37.8928
lwrist -17.5916
lhand -38.1233 6.02977
lfingers 7.12502
lthumb -11.1582 35.7131
rfemur -17.573 -13.3028 19.1378
rtibia 37.3727
rfoot -14.883 0.727728
rtoes -9.17905
lfemur 29.9701 -5.13291 -3.96746
ltibia 14.7336
lfoot -13.1439 -11.1694
ltoes -33.5305
366
root 0.661613 16.555 28.074 -8.75003 11.7665 -6.45931
lowerback 8.41404 -2.89518 2.13377
upperback 3.93822 -3.62198 3.62346
thorax -0.524806 -1.81217 2.85949
lowerneck -10.6323 -4.47171 -7.74345
upperneck 36.7174 -3.97115 -1.71967
head 14.6293 -2.9875 0.0474501
rclavicle -5.39203e-014 4.41302e-014
rhumerus -35.6706 29.0746 -64.3184
rradius 104.559
rwrist -1.06437
rhand -18.8611 -13.5855
rfingers 7.12502
rthumb 7.43926 -43.4347
lclavicle -5.39203e-014 4.41302e-014
lhumerus -46.6851 -28.2787 100.73
lradius 36.3487
lwrist -17.089
lhand -38.7374 7.1782
lfingers 7.12502
lthumb -11.7505 36.8286
rfemur -16.3707 -13.1501 18.857
rtibia 37.3054
rfoot -15.0026 0.725732
rtoes -7.95147
lfemur 27.0152 -5.19161 -4.00153
ltibia 21.9431
lfoot -11.9811 -11.2974
ltoes -33.2994
367
root 0.636806 16.5838 28.2741 -9.15448 11.5972 -6.47588
lowerback 8.60419 -2.74292 2.41577
upperback 4.07527 -3.39302 3.63573
thorax -0.510219 -1.69354 2.70124
lowerneck -10.9089 -4.53061 -7.58106
upperneck 38.1602 -4.11957 -1.54471
head 15.3979 -3.02568 0.0312182
rclavicle -2.85753e-014 6.52014e-014
rhumerus -36.8318 30.5925 -66.4738
rradius 101.079
rwrist -0.220894
rhand -16.8655 -11.6202
rfingers 7.12502
rthumb 9.36513 -41.3921
lclavicle -2.85753e-014 6.52014e-014
lhumerus -46.6391 -28.0008 100.932
lradius 36.0042
lwrist -16.6749
lhand -38.9942 7.35569
lfingers 7.12502
lthumb -11.9981 36.9918
rfemur -15.0706 -13.2785 18.8823
rtibia 37.0953
rfoot -15.1261 1.17916
rtoes -7.39371
lfemur 24.6357 -5.19584 -3.83883
ltibia 27.9503
lfoot -9.69343 -11.312
ltoes -31.4447
368
root 0.610537 16.617 28.4645 -9.46844 11.88 -6.51537
lowerback 9.01437 -2.73758 2.76944
upperback 4.09165 -3.33487 3.60625
thorax -0.7415 -1.6591 2.49004
lowerneck -11.1462 -4.582 -7.52894
upperneck 39.5132 -4.32812 -1.14939
head 16.1637 -3.06827 0.122769
rclavicle -2.2413e-014 -3.97569e-016
rhumerus -38.1186 32.0353 -68.7836
rradius 97.6768
rwrist 0.445547
rhand -15.1373 -10.2972
rfingers 7.12502
rthumb 11.0323 -39.9873
lclavicle -2.2413e-014 -3.97569e-016
lhumerus -46.647 -27.8598 101.155
lradius 35.7664
lwrist -15.974
lhand -39.0576 7.58107
lfingers 7.12502
lthumb -12.0592 37.2136
rfemur -13.8271 -13.737 18.9014
rtibia 36.8396
rfoot -15.4556 1.23776
rtoes -7.28437
lfemur 22.1912 -5.42921 -3.68252
ltibia 33.3783
lfoot -7.21832 -11.377
ltoes -28.681
369
root 0.587341 16.6487 28.6634 -9.71372 11.8948 -6.60823
lowerback 8.9688 -2.59262 3.05574
upperback 4.21798 -3.12452 3.71833
thorax -0.598224 -1.54997 2.42051
lowerneck -11.451 -4.69336 -7.47123
upperneck 40.9131 -4.5288 -1.01583
head 17.0097 -3.13549 0.0995341
rclavicle 3.34704e-014 -4.05521e-014
rhumerus -39.373 33.305 -70.9662
rradius 94.5322
rwrist -0.715587
rhand -13.3031 -9.39047
rfingers 7.12502
rthumb 12.801 -38.978
lclavicle 3.34704e-014 -4.05521e-014
lhumerus -46.676 -27.8521 101.67
lradius 35.9003
lwrist -14.7933
lhand -37.9503 7.69399
lfingers 7.12502
lthumb -10.9913 37.3862
rfemur -12.6616 -14.267 19.0074
rtibia 36.5737
rfoot -15.9511 1.50976
rtoes -7.23827
lfemur 19.9197 -5.27022 -3.35184
ltibia 38.3062
lfoot -4.63285 -11.5871
ltoes -23.842
370
root 0.552987 16.6877 28.8552 -9.78925 12.3959 -6.66428
lowerback 9.15955 -2.5626 3.13665
upperback 4.08153 -3.05749 3.78883
thorax -0.845917 -1.51672 2.45579
lowerneck -11.3391 -4.77432 -7.34912
upperneck 42.0644 -4.81469 -0.730702
head 17.6549 -3.20147 0.136387
rclavicle -2.92462e-014 3.29983e-014
rhumerus -41.0105 34.2778 -73.5104
rradius 91.3099
rwrist -1.76509
rhand -11.9842 -8.8176
rfingers 7.12502
rthumb 14.0722 -38.3212
lclavicle -2.92462e-014 3.29983e-014
lhumerus -47.1169 -27.9001 102.155
lradius 36.017
lwrist -15.1779
lhand -38.4294 7.68115
lfingers 7.12502
lthumb -11.4534 37.3483
rfemur -11.642 -14.6872 19.0788
rtibia 36.3192
rfoot -16.4118 1.34452
rtoes -6.87643
lfemur 17.3537 -5.45763 -3.07297
ltibia 42.896
lfoot -2.31926 -11.7496
ltoes -17.7479
371
root 0.532227 16.7131 29.0529 -9.93915 12.3354 -6.68574
lowerback 9.05619 -2.42746 3.29834
upperback 4.2395 -2.87727 3.83261
thorax -0.633831 -1.42322 2.38404
lowerneck -11.4164 -4.80081 -7.23602
upperneck 42.9782 -5.04748 -0.351064
head 18.2412 -3.22806 0.230985
rclavicle 1.28713e-014 -1.59028e-015
rhumerus -42.1317 35.1101 -75.9305
rradius 88.0522
rwrist -2.80878
rhand -10.9125 -8.35922
rfingers 7.12502
rthumb 15.1047 -37.7881
lclavicle 1.28713e-014 -1.59028e-015
lhumerus -47.0539 -27.7562 102.204
lradius 36.2965
lwrist -15.1775
lhand -37.7512 7.18279
lfingers 7.12502
lthumb -10.7993 36.8852
rfemur -10.6111 -14.619 19.1401
rtibia 36.1019
rfoot -16.9053 1.28779
rtoes -6.6096
lfemur 15.346 -5.1647 -2.90077
ltibia 47.0907
lfoot -1.47594 -11.6316
ltoes -12.7335
